<svg xmlns="http://www.w3.org/2000/svg" width="113.895" height="86.064" viewBox="0 0 113.895 86.064">
  <g id="Groupe_1373" data-name="Groupe 1373" transform="translate(5.938 -851.516)">
    <g id="Groupe_1370" data-name="Groupe 1370">
      <g id="Groupe_697" data-name="Groupe 697" transform="translate(-5.938 866.244)">
        <path id="Tracé_1391" data-name="Tracé 1391" d="M148.173,489.952c-4.412,2.488-2.265,6.728-.675,8.35s3.272,1.6,4.379,3.562-2.344,6.921.33,11.659,9.144,4.761,10.638,6.285-.684,2.963.146,4.432a5.2,5.2,0,0,0,.686.92c.246-4.1,3.092-6,2.862-8.758-.3-3.537-8.536-8.369-9.008-14.028-.353-4.217.752-6.381,1.2-8.82C156.363,490.2,153.229,487.724,148.173,489.952Z" transform="translate(-145.552 -473.116)" fill="#b5dee5" fill-rule="evenodd" opacity="0.523"/>
        <path id="Tracé_1392" data-name="Tracé 1392" d="M183.1,528.384c-1.616-1.693-11.558-1.416-13.737-8.61s2.6-9.328,2.308-12.865-8.536-8.369-9.008-14.028,1.678-7.621,1.353-11.511-7.505-10.949-3.453-15.74,9.755.183,11.438,2.606,2.183,6.941,4.483,8.887,5.714.769,8.4,4.64,3.261,9.167,6.519,11.922,8.4,2.718,12.471,8.575-.011,18.017-1.6,19.19c-1.365,1.006-1.037,10.317-4.683,13.256l-6.448.129C187.872,533.892,186.257,531.694,183.1,528.384Z" transform="translate(-150.684 -463.622)" fill="#b5dee5" fill-rule="evenodd"/>
        <path id="Tracé_1393" data-name="Tracé 1393" d="M174.536,483.315s17.659,28.317,26.664,58.9" transform="translate(-156.352 -470.96)" fill="#b5dee5" stroke="#fff" stroke-miterlimit="22.926" stroke-width="0.567" fill-rule="evenodd"/>
        <path id="Tracé_1394" data-name="Tracé 1394" d="M186.068,515.466s-6.63-4.543-12.334-4.8" transform="translate(-156.053 -481.151)" fill="#b5dee5" stroke="#fff" stroke-miterlimit="22.926" stroke-width="0.567" fill-rule="evenodd"/>
        <path id="Tracé_1395" data-name="Tracé 1395" d="M202.968,533.6s.456-5.773,1.763-8.646" transform="translate(-166.946 -486.473)" fill="#b5dee5" stroke="#fff" stroke-miterlimit="22.926" stroke-width="0.567" fill-rule="evenodd"/>
      </g>
      <g id="Groupe_694" data-name="Groupe 694" transform="translate(46.393 845.5) rotate(9)">
        <path id="Tracé_1384" data-name="Tracé 1384" d="M3.845,15.952c6.114-9.078,10.375-12.6,5-15.007S.965.2.139,12.246a40.611,40.611,0,0,0,0,7.1Z" transform="translate(38.456 0)" fill="#45b0c1" fill-rule="evenodd"/>
        <path id="Tracé_1385" data-name="Tracé 1385" d="M4.248,2.93c3.317-1.861,17.8-6.473,21.439,2.022s-7.361,9.143-11.164,7.606S2.266,7.363,0,6.877C3.013,4.081,4.248,2.93,4.248,2.93Z" transform="translate(37.985 13.065)" fill="#45b0c1" fill-rule="evenodd"/>
        <path id="Tracé_1386" data-name="Tracé 1386" d="M33.952,0S12.3,19.276,0,40.8" transform="translate(8.497 15.732)" fill="none" stroke="#45b0c1" stroke-miterlimit="22.926" stroke-width="0.567" fill-rule="evenodd"/>
        <path id="Tracé_1387" data-name="Tracé 1387" d="M9.87,18.761C11.164,11.641,14.7-2.461,5.393.371S1.267,11.131,3.047,13.881,7.423,21.5,7.423,21.5Z" transform="translate(18.717 10.932)" fill="#45b0c1" fill-rule="evenodd"/>
        <path id="Tracé_1388" data-name="Tracé 1388" d="M2.67,1.493C9.385,1.573,15.04.261,19.166.018s7.686,2.022,7.282,8.09-8.656,8.98-12.3,7.767S5.994,9.985,3.567,7.558A15.733,15.733,0,0,0,0,4.6Z" transform="translate(23.471 30.944)" fill="#45b0c1" fill-rule="evenodd"/>
        <path id="Tracé_1389" data-name="Tracé 1389" d="M16.1,23.958c0-6.473-.971-15.558-3.156-20.331S3.157-1.792.811,5.246,1.7,17.948,4.29,19.889s10.185,6.338,10.185,6.338Z" transform="translate(0 20.943)" fill="#45b0c1" fill-rule="evenodd"/>
        <path id="Tracé_1390" data-name="Tracé 1390" d="M0,6.542C5.444,3.57,12.571.511,17.185.033c5.221-.541,9.64,5.683,4.765,11.278A15.946,15.946,0,0,1,20,13.207Z" transform="translate(8.031 49.924)" fill="#45b0c1" fill-rule="evenodd"/>
      </g>
    </g>
  </g>
</svg>
